<svg xmlns="http://www.w3.org/2000/svg" xml:space="preserve" width="59.865" height="61.747" fill-rule="evenodd" clip-rule="evenodd" image-rendering="optimizeQuality" shape-rendering="geometricPrecision" text-rendering="geometricPrecision" viewBox="0 0 209.38 215.96"><defs><linearGradient id="a" x1="47.41" x2="162.9" y1="31.6" y2="176.3" gradientUnits="userSpaceOnUse"><stop offset="0" stop-color="#71aae1"/><stop offset="1" stop-color="#4078ac"/></linearGradient></defs><ellipse cx="104.69" cy="107.98" fill="url(#a)" rx="104.69" ry="107.98"/><g fill="#fefefe" fill-rule="nonzero"><path d="M104.72 138c.56 0 1.06.3 1.36.76 4.84 8.02 13.32 12.77 22.71 12.77 14.63 0 26.49-11.91 26.49-26.49 0-14.63-11.91-26.49-26.49-26.49-9.34 0-17.81 4.79-22.71 12.77-.3.45-.81.76-1.36.76-.56 0-1.06-.3-1.36-.76-4.84-8.02-13.32-12.77-22.71-12.77-14.63 0-26.49 11.91-26.49 26.49s11.91 26.49 26.49 26.49c9.34 0 17.81-4.79 22.71-12.77.3-.45.81-.76 1.36-.76m24.02 16.75c-9.64 0-18.47-4.54-24.02-12.26-5.55 7.72-14.38 12.26-24.02 12.26-16.35 0-29.67-13.32-29.67-29.67S64.35 95.41 80.7 95.41c9.64 0 18.47 4.54 24.02 12.26 5.55-7.72 14.38-12.26 24.02-12.26 16.35 0 29.67 13.32 29.67 29.67s-13.32 29.67-29.67 29.67"/><path d="M79.99 106.82c-10.04 0-18.27 8.17-18.27 18.27 0 10.04 8.17 18.27 18.27 18.27 10.09 0 18.27-8.17 18.27-18.27 0-10.09-8.17-18.27-18.27-18.27m0 39.66c-11.81 0-21.4-9.59-21.4-21.4s9.59-21.4 21.4-21.4 21.4 9.59 21.4 21.4-9.59 21.4-21.4 21.4m49.4-39.66c-10.04 0-18.27 8.17-18.27 18.27 0 10.04 8.17 18.27 18.27 18.27 10.04 0 18.27-8.17 18.27-18.27 0-10.09-8.17-18.27-18.27-18.27m0 39.66c-11.81 0-21.4-9.59-21.4-21.4s9.59-21.4 21.4-21.4 21.4 9.59 21.4 21.4-9.59 21.4-21.4 21.4m-33.3-43.29c-.2 0-.45-.05-.66-.15a1.55 1.55 0 0 1-.76-2.12l3.78-8.33c.35-.81 1.31-1.16 2.12-.76.81.35 1.16 1.31.76 2.12l-3.78 8.33c-.3.55-.86.91-1.46.91m-38.75 53.33c-.35 0-.71-.1-.96-.35-.71-.56-.81-1.51-.25-2.22l6.05-7.72c.56-.71 1.51-.81 2.22-.25s.81 1.51.25 2.22l-6.06 7.72c-.35.4-.81.61-1.26.61z"/><path d="M57.34 156.52c-.35 0-.66-.1-.96-.3-9.79-7.47-15.44-18.82-15.44-31.13 0-21.55 17.56-39.11 39.11-39.11 7.37 0 14.53 2.07 20.74 5.95.66.4.91 1.26.61 2.02l-3.83 8.33c-.35.81-1.31 1.16-2.12.76a1.55 1.55 0 0 1-.76-2.12l3.23-7.01c-5.4-3.13-11.55-4.74-17.86-4.74-19.83 0-35.93 16.1-35.93 35.93 0 10.8 4.69 20.79 12.97 27.65l5.05-6.46c.56-.71 1.51-.81 2.22-.25s.81 1.51.25 2.22l-6.05 7.72c-.3.35-.76.56-1.21.56zm94.76 0c-.45 0-.96-.2-1.26-.61l-6.05-7.72c-.56-.71-.4-1.67.25-2.22.71-.55 1.67-.4 2.22.25l5.05 6.46c8.28-6.86 12.97-16.85 12.97-27.65 0-19.83-16.1-35.93-35.93-35.93-6.31 0-12.46 1.61-17.86 4.74l3.23 7.01c.35.81 0 1.72-.76 2.12-.81.35-1.72 0-2.12-.76l-3.78-8.33c-.35-.71-.05-1.56.61-2.02a39 39 0 0 1 20.74-5.95c21.55 0 39.11 17.56 39.11 39.11 0 12.31-5.65 23.67-15.44 31.13-.3.25-.66.35-.96.35zM96.04 67.01H65.46c-.86 0-1.56-.71-1.56-1.56 0-.86.71-1.56 1.56-1.56h30.58c.86 0 1.56.71 1.56 1.56 0 .86-.71 1.56-1.56 1.56m47.89 0h-30.58c-.86 0-1.57-.71-1.57-1.56 0-.86.71-1.56 1.57-1.56h30.58c.86 0 1.56.71 1.56 1.56 0 .86-.71 1.56-1.56 1.56M96.04 79.57H65.46c-.86 0-1.56-.71-1.56-1.56 0-.86.71-1.56 1.56-1.56h30.58c.86 0 1.56.71 1.56 1.56 0 .86-.71 1.56-1.56 1.56m47.89 0h-30.58c-.86 0-1.57-.71-1.57-1.56 0-.86.71-1.56 1.57-1.56h30.58c.86 0 1.56.71 1.56 1.56 0 .86-.71 1.56-1.56 1.56"/><path d="M104.72 62.57c-5.05 0-9.13 4.09-9.13 9.13 0 5.05 4.09 9.13 9.13 9.13 5.05 0 9.13-4.09 9.13-9.13 0-5.05-4.14-9.13-9.13-9.13m0 21.4c-6.76 0-12.26-5.5-12.26-12.26s5.5-12.26 12.26-12.26 12.26 5.5 12.26 12.26-5.5 12.26-12.26 12.26m-47.89-21.4c-5.05 0-9.13 4.09-9.13 9.13 0 5.05 4.09 9.13 9.13 9.13 5.05 0 9.13-4.09 9.13-9.13 0-5.05-4.14-9.13-9.13-9.13m0 21.4c-6.76 0-12.26-5.5-12.26-12.26s5.5-12.26 12.26-12.26 12.26 5.5 12.26 12.26-5.5 12.26-12.26 12.26m95.77-21.4c-5.05 0-9.13 4.09-9.13 9.13 0 5.05 4.09 9.13 9.13 9.13 5.05 0 9.13-4.09 9.13-9.13 0-5.05-4.14-9.13-9.13-9.13m0 21.4c-6.76 0-12.26-5.5-12.26-12.26s5.5-12.26 12.26-12.26 12.26 5.5 12.26 12.26-5.5 12.26-12.26 12.26"/><path d="M104.72 112.12c-.86 0-1.56-.71-1.56-1.56V82.4c0-.86.71-1.57 1.56-1.57.86 0 1.56.71 1.56 1.57v28.16c0 .86-.71 1.56-1.56 1.56m29.62-22.76c-.86 0-1.56-.71-1.56-1.57v-9.84c0-.86.71-1.57 1.56-1.57.86 0 1.56.71 1.56 1.57v9.79c.05.91-.66 1.62-1.56 1.62m-57.12-.1c-.86 0-1.56-.71-1.56-1.56v-9.74c0-.86.71-1.57 1.56-1.57.86 0 1.57.71 1.57 1.57v9.69c.05.91-.66 1.61-1.57 1.61m-33.81 45.67h-6.96c-2.52 0-4.54-2.07-4.54-4.54v-10.6c0-2.52 2.07-4.54 4.54-4.54h6.96c.86 0 1.57.71 1.57 1.56 0 .86-.71 1.56-1.57 1.56h-6.96c-.76 0-1.41.61-1.41 1.41v10.6c0 .76.61 1.41 1.41 1.41h6.96c.86 0 1.57.71 1.57 1.56 0 .86-.71 1.57-1.57 1.57zm129.53 0h-6.96c-.86 0-1.56-.71-1.56-1.57s.71-1.56 1.56-1.56h6.96c.76 0 1.41-.61 1.41-1.41v-10.6c0-.76-.61-1.41-1.41-1.41h-6.96c-.86 0-1.56-.71-1.56-1.56 0-.86.71-1.56 1.56-1.56h6.96c2.52 0 4.54 2.07 4.54 4.54v10.6c0 2.47-2.02 4.54-4.54 4.54zm-68.22-65.85c-1.46 0-2.62 1.16-2.62 2.62s1.16 2.62 2.62 2.62 2.62-1.16 2.62-2.62-1.16-2.62-2.62-2.62m0 8.43c-3.18 0-5.8-2.62-5.8-5.8s2.62-5.8 5.8-5.8 5.8 2.62 5.8 5.8-2.62 5.8-5.8 5.8m47.88-8.43c-1.46 0-2.62 1.16-2.62 2.62s1.16 2.62 2.62 2.62 2.62-1.16 2.62-2.62-1.21-2.62-2.62-2.62m0 8.43c-3.18 0-5.8-2.62-5.8-5.8s2.62-5.8 5.8-5.8 5.8 2.62 5.8 5.8-2.62 5.8-5.8 5.8m-95.77-8.43c-1.46 0-2.62 1.16-2.62 2.62s1.16 2.62 2.62 2.62 2.62-1.16 2.62-2.62-1.16-2.62-2.62-2.62m0 8.43c-3.18 0-5.8-2.62-5.8-5.8s2.62-5.8 5.8-5.8 5.8 2.62 5.8 5.8-2.62 5.8-5.8 5.8m79.58 49.14h-14.03c-.86 0-1.56-.71-1.56-1.57s.71-1.56 1.56-1.56h14.03c.86 0 1.56.71 1.56 1.56 0 .86-.71 1.57-1.56 1.57m-56.42 7.02c-.86 0-1.57-.71-1.57-1.57v-14.03c0-.86.71-1.56 1.57-1.56s1.56.71 1.56 1.56v14.03c.05.86-.66 1.57-1.56 1.57"/><path d="M87.01 126.65H72.98c-.86 0-1.56-.71-1.56-1.57s.71-1.56 1.56-1.56h14.03c.86 0 1.56.71 1.56 1.56 0 .86-.71 1.57-1.56 1.57"/></g></svg>