<?xml version="1.0" encoding="UTF-8"?>
<!DOCTYPE svg PUBLIC "-//W3C//DTD SVG 1.1//EN" "http://www.w3.org/Graphics/SVG/1.1/DTD/svg11.dtd">
<!-- Creator: CorelDRAW -->
<svg xmlns="http://www.w3.org/2000/svg" xml:space="preserve" width="15.8393mm" height="16.3372mm" version="1.1" style="shape-rendering:geometricPrecision; text-rendering:geometricPrecision; image-rendering:optimizeQuality; fill-rule:evenodd; clip-rule:evenodd"
viewBox="0 0 1028.38 1060.71"
 xmlns:xlink="http://www.w3.org/1999/xlink"
 xmlns:xodm="http://www.corel.com/coreldraw/odm/2003">
 <defs>
  <style type="text/css">
   <![CDATA[
    .fil1 {fill:#FEFEFE}
    .fil2 {fill:#EF7945}
    .fil0 {fill:url(#id0)}
   ]]>
  </style>
  <linearGradient id="id0" gradientUnits="userSpaceOnUse" x1="232.84" y1="155.22" x2="800.06" y2="865.9">
   <stop offset="0" style="stop-opacity:1; stop-color:#EF7945"/>
   <stop offset="1" style="stop-opacity:1; stop-color:#F40009"/>
  </linearGradient>
 </defs>
 <g id="Layer_x0020_1">
  <metadata id="CorelCorpID_0Corel-Layer"/>
  <ellipse class="fil0" cx="514.19" cy="530.35" rx="514.19" ry="530.35"/>
  <path class="fil1" d="M334.36 593.64c20.3,-2.9 30.42,0.78 51,-7.02 13.63,-5.16 26.82,-13.23 37.7,-20.41 24.17,-15.95 47.32,-32.43 86.38,-30.79 11,3.88 36.35,59.09 204.47,111.75 48.51,15.2 76.83,20.09 98.1,59.48 17.76,32.88 22.04,89.61 26.54,131.17l-53.14 0c0.06,-35.26 1.16,-58.78 -21.44,-74.99 -51.97,-37.27 -72.53,28.48 -138.3,33.9 -50.23,4.14 -36.09,5.45 -69.26,23.2 -57.53,-33.17 -83.79,-52.72 -128.44,-96.84 -48.6,-48.01 -59.62,-69.93 -93.61,-129.44zm191.14 242.97c-68.21,5.28 -133.69,-15.41 -185.99,-41.54 -50.14,-25.05 -85.87,-64.58 -112.7,-114.05 -58.79,-108.43 -48.38,-281.93 39.39,-339.06 -9.54,133.53 10.99,211.63 68.39,308.75 10.85,18.35 27.68,41.35 40.88,55.75 16.02,17.49 40.64,46.4 58.01,60.78l38.4 30.76c7.47,5.68 50.97,34.35 53.62,38.6zm-113.37 -391.21c5.8,-11.41 118.59,-121.76 135.12,-137.01l17.93 18.19c-2.29,6.11 1.12,1.08 -3.96,7.61 -2.62,3.37 -0.45,0.43 -4.17,4.09 -54.65,53.89 -4.63,21.64 -52.27,69.31 -32.95,32.96 -42.13,53.82 -92.65,37.81zm155.75 -157.5c15.32,-18.47 38.3,-38.88 56.14,-56.75 20.64,-20.66 46.19,-55.38 60.25,-40.66 12.39,12.99 -7.6,28.1 -13.96,34.44l-83.58 82.86 -18.85 -19.91zm-271.07 35.92c26.55,-10.5 79.55,-32.44 99.17,-47.12 24.97,-18.69 46.55,-44.05 53.94,-90.76l57.17 -0.31c-5.49,35.43 -19.58,70.7 -29.06,103.91 -5.1,17.89 -9.54,34.14 -13.38,52.9 -3.83,18.71 -16.99,25.76 -27.47,36.24 -44.88,44.9 -95.75,75.1 -21.44,96.91 21.84,6.41 35.69,2.61 54.98,-1.92l17.75 35.31c-35.47,3.99 -56.58,18.46 -80.37,34 -16.04,10.48 -60.37,35.79 -84.99,17.88 -4.01,-3.01 -2.76,2.94 -7.87,-12.48 -26.74,-80.74 -29.77,-137.93 -18.43,-224.56zm203.75 -10.8c6.38,-37.35 46.02,-121.04 31.96,-152.79 -16.27,-3.79 -42.7,-2.21 -61.76,-2.22 -19.09,0 -43.68,-6.18 -47.23,13.8 -7.6,42.71 -15.63,60.71 -41.07,80.35 -45.29,34.99 -113.48,38.42 -156.74,89.18 -88.46,103.77 -79.18,262.52 -12.2,372.3 30.59,50.13 70.8,87.05 131.42,114.64 45.2,20.57 145.71,50.38 200.38,31.56 19.43,-6.68 25.46,-15.87 38.7,-24.85 16.33,-11.08 28.46,-8.84 49.7,-11.32 16.3,-1.9 33.31,-7.27 46.82,-13.84 17.08,-8.3 59.61,-53.26 75.37,-14 5.4,13.47 -0.83,43.71 2.45,58.43 3.84,17.23 34.34,11.18 49.54,11.18 17.19,0 45.41,3.71 56.39,-4.44 11.32,-17.05 -14.51,-141.49 -25.17,-162.16 -11.93,-23.15 -26.83,-39.31 -47.45,-52.09 -39.87,-24.73 -268.92,-66.63 -296.38,-191.25 6.67,-5.07 52.4,-49.52 55.62,-57.09 9.59,-22.54 2.06,-19.7 18.92,-36.34l138.41 -137.85c26.72,-35.07 -20.43,-95.84 -67.96,-48.69 -9.91,9.83 -17.76,17.76 -27.64,27.63 -19.09,19.1 -36.17,36.17 -55.26,55.27 -13.3,13.3 -43.1,46.93 -56.79,54.59z"/>
  <path class="fil2" d="M586.63 738.32c-16.38,51.47 -94.04,29.9 -79.49,-24.07 13.99,-51.86 96.04,-27.93 79.49,24.07zm98.39 -30.45c0.47,34.79 -45.62,13.65 -18.48,-7.91 10.64,-0.87 12.97,1.44 18.48,7.91zm-234.49 8.34c0.61,-26.09 25.66,-19.85 26.74,-4.97 1.02,14.08 -15.13,22.37 -26.74,4.97zm171.79 -19.14c-23.26,3.64 -23.48,-12.04 -13.53,-24.67l11.39 -1.42 9.41 9.56c-0.25,11.44 -0.82,10.76 -7.27,16.52zm-89.66 -50.43c-19.21,31.62 -48.54,-19.08 -5.83,-16.13 4.24,6.93 5.46,7.46 5.83,16.13zm-125.13 -55.21c52.57,-21.8 76.87,57.49 30.97,76.27 -49.6,20.3 -84.68,-53.99 -30.97,-76.27zm-145.44 2.21c33.99,59.51 45.01,81.43 93.61,129.44 44.66,44.12 70.91,63.67 128.44,96.84 33.16,-17.75 19.02,-19.06 69.26,-23.2 65.78,-5.42 86.34,-71.18 138.3,-33.9 22.59,16.21 21.5,39.73 21.44,74.99l53.14 0c-4.5,-41.56 -8.78,-98.28 -26.54,-131.17 -21.27,-39.39 -49.58,-44.28 -98.1,-59.48 -168.12,-52.66 -193.47,-107.87 -204.47,-111.75 -39.06,-1.64 -62.21,14.84 -86.38,30.79 -10.88,7.17 -24.06,15.24 -37.7,20.41 -20.57,7.8 -30.7,4.13 -51,7.02z"/>
  <path class="fil1" d="M501.04 733.89c-1.14,-18 2.37,-21.53 20.37,-20.37 13.77,20.56 0.24,34.07 -20.37,20.37zm52.69 4.43c16.56,-52.01 -65.5,-75.93 -79.49,-24.07 -14.55,53.97 63.11,75.54 79.49,24.07z"/>
  <path class="fil1" d="M525.52 618.21c2.18,6.69 2.84,9.32 1.13,17.86 -10.71,10.06 -16.21,10.29 -26.04,-2.91l3.1 -16 21.82 1.05zm-25.46 -26.79c-53.71,22.28 -18.63,96.56 30.97,76.27 45.9,-18.78 21.6,-98.07 -30.97,-76.27z"/>
  <path class="fil1" d="M528.1 646.64c-0.37,-8.67 -1.59,-9.21 -5.83,-16.13 -42.71,-2.94 -13.38,47.75 5.83,16.13z"/>
  <path class="fil1" d="M500.8 716.21c11.6,17.39 27.76,9.1 26.74,-4.97 -1.08,-14.87 -26.13,-21.11 -26.74,4.97z"/>
  <path class="fil1" d="M520.44 697.07c6.45,-5.77 7.02,-5.08 7.27,-16.52l-9.41 -9.56 -11.39 1.42c-9.95,12.63 -9.73,28.3 13.53,24.67z"/>
 </g>
</svg>
